<svg width="3703" height="453" viewBox="0 0 3703 453" fill="none" xmlns="http://www.w3.org/2000/svg">
<path d="M6.0342 29.7357L-28 49.5595V453H3714V56.3756C3714 56.3756 3526.43 36.2216 3413.15 49.5595C3308.97 61.8265 3157.16 109.031 3157.16 109.031C3157.16 109.031 3015.18 175.22 2910.04 186.839C2769.26 202.397 2694.23 147.765 2552.68 135.793C2451.84 127.264 2394.47 120.66 2292.98 124.394C2106.47 131.258 2013.52 243.866 1832.78 212.115C1696.91 188.244 1545.71 66.4097 1545.71 66.4097C1545.71 66.4097 1275.03 245.465 1081.07 212.115C1014.53 200.673 924.218 158.59 924.218 158.59C924.218 158.59 796.006 172.315 772.544 172.467C749.081 172.619 660.823 135.793 660.823 135.793C660.823 135.793 578.973 180.393 516.547 182.379C384.162 186.59 312.342 0 312.342 0C312.342 0 225.973 77.4627 155.489 66.4097C125.747 61.7457 88.1602 39.6476 88.1602 39.6476C88.1602 39.6476 53.9573 55.11 33.4095 49.5595C18.8342 45.6223 6.0342 29.7357 6.0342 29.7357Z" fill="#586F5C"/>
</svg>
