<svg width="3704" height="450" viewBox="0 0 3704 450" fill="none" xmlns="http://www.w3.org/2000/svg">
<path d="M34.1488 29.8013L0.410156 49.6689V450H3703.59V49.6689C3703.59 49.6689 3523.97 36.3015 3411.68 49.6689C3308.4 61.9629 3157.9 109.272 3157.9 109.272C3157.9 109.272 3017.16 175.607 2912.93 187.252C2773.37 202.844 2699 148.092 2558.68 136.093C2458.71 127.545 2401.84 120.926 2301.24 124.669C2116.34 131.548 2024.2 244.404 1845.03 212.583C1710.34 188.66 1560.45 66.5563 1560.45 66.5563C1560.45 66.5563 1292.12 246.007 1099.85 212.583C1033.88 201.116 944.358 158.94 944.358 158.94C944.358 158.94 817.26 172.695 794.001 172.848C770.742 173 683.25 136.093 683.25 136.093C683.25 136.093 602.111 180.791 540.228 182.781C408.992 187.002 337.796 0 337.796 0C337.796 0 252.178 77.6337 182.305 66.5563C152.822 61.882 115.562 39.7351 115.562 39.7351C115.562 39.7351 81.6556 55.2317 61.2863 49.6689C46.8376 45.723 34.1488 29.8013 34.1488 29.8013Z" fill="#586F5C"/>
</svg>
