<svg width="3703" height="542" viewBox="0 0 3703 542" fill="none" xmlns="http://www.w3.org/2000/svg">
<g filter="url(#filter0_f_18_7)">
<path d="M50.7719 75.3636C30.0655 75.3636 -10 131.684 -10 131.684V542H3740V135.119C3740 135.119 3279.21 88.6828 3237.7 88.6828C3196.19 88.6828 3151.71 137.224 3084.56 150.346C2974.82 171.792 2882.33 170.851 2794.64 122.228C2766.01 106.355 2768.68 81.0401 2732.94 73.8837C2710.3 69.3511 2569.68 95.5109 2465.32 88.6828C2371.39 82.538 2232.79 29.1048 2212.03 52.6636C2170.67 99.5863 2046.68 97.3272 1996.23 108.908C1937.12 122.48 1961.23 172.079 1915.95 200.663C1828.29 256 1731.79 246.705 1611.16 239.141C1521.18 233.499 1414.41 192.404 1390.37 193.263C1366.33 194.122 1282.85 233.753 1221.62 215.462C1175.9 201.806 1179.3 165.735 1139.1 150.346C1098.9 134.957 836.109 255.477 698.268 185.864C674.407 173.813 666.921 162.566 643.257 150.346C573.544 114.348 497.972 138.257 429.159 101.509C376.503 73.3883 349.863 -0.298376 327.314 8.76746C304.766 17.8333 241.641 4.5139 197.964 22.0867C162.547 36.3361 167.614 65.6847 128.828 75.3636C100.308 82.4809 71.4784 75.3636 50.7719 75.3636Z" fill="#85A68B"/>
</g>
<defs>
<filter id="filter0_f_18_7" x="-18" y="0" width="3766" height="550" filterUnits="userSpaceOnUse" color-interpolation-filters="sRGB">
<feFlood flood-opacity="0" result="BackgroundImageFix"/>
<feBlend mode="normal" in="SourceGraphic" in2="BackgroundImageFix" result="shape"/>
<feGaussianBlur stdDeviation="4" result="effect1_foregroundBlur_18_7"/>
</filter>
</defs>
</svg>
