<svg width="3728" height="878" viewBox="0 0 3728 878" fill="none" xmlns="http://www.w3.org/2000/svg">
<g filter="url(#filter0_f_11_129)">
<path d="M233.66 428C156.844 423.571 38.1369 409.5 38.1369 409.5H12.4102V865.5H3715.59V409.5C3715.59 409.5 3530.48 396.22 3414.22 379C3336.46 367.483 3285.8 370.974 3217.23 343.5C3151.64 317.223 3080.51 249 3080.51 249C3080.51 249 3027.58 203.5 3003.33 207.5C2979.07 211.5 2912.92 249 2912.92 249L2740.18 326.5L2593.17 233.5L2447.63 152C2447.63 152 2416.76 119.5 2355.01 119.5C2293.27 119.5 2155.08 220 2155.08 220L2005.13 85.5001C2005.13 85.5001 1873.56 24.4999 1844.15 13.0001C1814.75 1.50024 1615.55 152 1615.55 152C1615.55 152 1434 53.5001 1415.62 62.5001C1397.24 71.5001 1348.14 136.304 1299.48 181C1254.55 222.271 1232.32 247.715 1177.46 283C1104.92 329.661 1055.05 350.696 964.299 379C813.127 426.148 710.464 419.896 544.586 428C423.474 433.917 354.65 434.976 233.66 428Z" fill="#ADD8B4"/>
</g>
<defs>
<filter id="filter0_f_11_129" x="0.410156" y="0.373047" width="3727.18" height="877.127" filterUnits="userSpaceOnUse" color-interpolation-filters="sRGB">
<feFlood flood-opacity="0" result="BackgroundImageFix"/>
<feBlend mode="normal" in="SourceGraphic" in2="BackgroundImageFix" result="shape"/>
<feGaussianBlur stdDeviation="6" result="effect1_foregroundBlur_11_129"/>
</filter>
</defs>
</svg>
