<svg width="3703" height="859" viewBox="0 0 3703 859" fill="none" xmlns="http://www.w3.org/2000/svg">
<g filter="url(#filter0_f_18_6)">
<path d="M203.904 421.999C126.166 417.63 6.03536 403.749 6.03536 403.749H-20V853.574L3734 859V407.695C3734 407.695 3540.28 390.649 3422.62 373.662C3343.92 362.301 3292.66 365.745 3223.26 338.643C3156.89 312.721 3084.9 245.423 3084.9 245.423C3084.9 245.423 3031.34 200.539 3006.8 204.485C2982.25 208.43 2915.3 245.423 2915.3 245.423L2740.49 321.873L2591.72 230.133L2444.43 149.736C2444.43 149.736 2413.19 117.676 2350.71 117.676C2288.22 117.676 2148.37 216.815 2148.37 216.815L1996.62 84.1368C1996.62 84.1368 1863.47 23.9626 1833.72 12.6185C1803.96 1.27442 1602.37 149.736 1602.37 149.736C1602.37 149.736 1418.64 52.5701 1400.04 61.4482C1381.45 70.3263 1331.76 134.252 1282.51 178.344C1237.04 219.055 1214.54 244.155 1159.03 278.962C1085.62 324.991 1035.15 345.741 943.308 373.662C790.323 420.172 686.427 414.005 518.56 421.999C395.995 427.836 326.346 428.88 203.904 421.999Z" fill="#ADD8B4"/>
</g>
<defs>
<filter id="filter0_f_18_6" x="-32" y="0" width="3778" height="871" filterUnits="userSpaceOnUse" color-interpolation-filters="sRGB">
<feFlood flood-opacity="0" result="BackgroundImageFix"/>
<feBlend mode="normal" in="SourceGraphic" in2="BackgroundImageFix" result="shape"/>
<feGaussianBlur stdDeviation="6" result="effect1_foregroundBlur_18_6"/>
</filter>
</defs>
</svg>
