<svg width="3703" height="926" viewBox="0 0 3703 926" fill="none" xmlns="http://www.w3.org/2000/svg">
<g filter="url(#filter0_f_18_5)">
<path d="M119.91 240.699C70.8511 260.251 -20 269.275 -20 269.275V926H3727V297.569C3727 297.569 3521.07 246.58 3384.49 173.343C3298.4 127.183 3260.02 90.4545 3161.24 57.5105C3099.74 37.0009 3062.25 7.67855 2995.34 18.2192C2912.87 31.2103 2929.93 96.1743 2871.48 137.113C2699.43 257.619 2516.39 304.87 2269.79 279.991C2169.13 269.835 2125.31 230.148 2024.37 221.309C1936.27 213.594 1884.03 219.744 1797.9 229.884L1792.72 230.494C1672.77 244.606 1617.09 282.071 1497.61 297.85C1324.22 320.749 1220.96 309.023 1045 297.85C936.125 290.937 865.191 303.056 768.239 269.275C707.846 248.232 680.317 189.672 632.915 195.795C585.514 201.919 426.49 143.237 426.49 143.237C366.143 146.037 337.507 196.526 281.992 180.487C261.324 174.515 259.821 169.771 236.885 156.504C213.949 143.237 177.594 217.711 119.91 240.699Z" fill="#DEFDE3"/>
</g>
<defs>
<filter id="filter0_f_18_5" x="-36" y="0" width="3779" height="942" filterUnits="userSpaceOnUse" color-interpolation-filters="sRGB">
<feFlood flood-opacity="0" result="BackgroundImageFix"/>
<feBlend mode="normal" in="SourceGraphic" in2="BackgroundImageFix" result="shape"/>
<feGaussianBlur stdDeviation="8" result="effect1_foregroundBlur_18_5"/>
</filter>
</defs>
</svg>
