<svg width="3560" height="584" viewBox="0 0 3560 584" fill="none" xmlns="http://www.w3.org/2000/svg">
<circle cx="109" cy="216" r="16" fill="#D9D9D9"/>
<circle cx="895" cy="46" r="16" fill="#D9D9D9"/>
<circle cx="1131" cy="347" r="16" fill="#D9D9D9"/>
<circle cx="1547" cy="200" r="16" fill="#D9D9D9"/>
<circle cx="2025" cy="125" r="16" fill="#D9D9D9"/>
<circle cx="3374" cy="62" r="16" fill="#D9D9D9"/>
<circle cx="3363" cy="292" r="5" fill="#D9D9D9"/>
<circle cx="3555" cy="420" r="5" fill="#D9D9D9"/>
<circle cx="199" cy="373" r="5" fill="#D9D9D9"/>
<circle cx="5" cy="10" r="5" fill="#D9D9D9"/>
<circle cx="244" cy="5" r="5" fill="#D9D9D9"/>
<circle cx="386" cy="179" r="5" fill="#D9D9D9"/>
<circle cx="519" cy="474" r="5" fill="#D9D9D9"/>
<circle cx="706" cy="189" r="5" fill="#D9D9D9"/>
<circle cx="604" cy="15" r="5" fill="#D9D9D9"/>
<circle cx="815" cy="368" r="5" fill="#D9D9D9"/>
<circle cx="2380" cy="395" r="5" fill="#D9D9D9"/>
<circle cx="3545" cy="136" r="5" fill="#D9D9D9"/>
<circle cx="3173" cy="15" r="5" fill="#D9D9D9"/>
<circle cx="1152" cy="25" r="5" fill="#D9D9D9"/>
<circle cx="1030" cy="184" r="5" fill="#D9D9D9"/>
<circle cx="1879" cy="410" r="5" fill="#D9D9D9"/>
<circle cx="1496" cy="400" r="5" fill="#D9D9D9"/>
<circle cx="1362" cy="120" r="5" fill="#D9D9D9"/>
<circle cx="1758" cy="35" r="5" fill="#D9D9D9"/>
<circle cx="1850" cy="247" r="5" fill="#D9D9D9"/>
<circle cx="2171" cy="271" r="5" fill="#D9D9D9"/>
<circle cx="2557" cy="247" r="5" fill="#D9D9D9"/>
<circle cx="2777" cy="73" r="5" fill="#D9D9D9"/>
<circle cx="2999" cy="511" r="5" fill="#D9D9D9"/>
<circle cx="3026" cy="146" r="5" fill="#D9D9D9"/>
<circle cx="2436" cy="83" r="5" fill="#D9D9D9"/>
<circle cx="2359" cy="568" r="16" fill="#D9D9D9"/>
<circle cx="2025" cy="125" r="16" fill="#D9D9D9"/>
<circle cx="2736" cy="287" r="16" fill="#D9D9D9"/>
</svg>
