<svg width="3720" height="554" viewBox="0 0 3720 554" fill="none" xmlns="http://www.w3.org/2000/svg">
<g filter="url(#filter0_f_11_130)">
<path d="M65.1554 76.6251C44.6284 76.6251 8.41016 134.92 8.41016 134.92V546H3711.59V134.92C3711.59 134.92 3265.62 90.1938 3224.46 90.1938C3183.31 90.1938 3139.22 139.644 3072.65 153.012C2963.86 174.859 2872.18 173.901 2785.24 124.367C2756.86 108.197 2759.51 82.4079 2724.07 75.1175C2701.63 70.5 2562.24 97.1496 2458.77 90.1938C2365.66 83.9338 2228.26 29.5 2207.68 53.5C2166.69 101.301 2043.76 99 1993.76 110.798C1935.15 124.624 1959.05 175.151 1914.17 204.271C1827.27 260.644 1731.61 251.175 1612.02 243.469C1522.82 237.722 1416.97 195.858 1393.14 196.733C1369.31 197.608 1286.56 237.98 1225.85 219.347C1180.53 205.436 1183.9 168.689 1144.05 153.012C1104.2 137.334 843.686 260.112 707.04 189.195C683.385 176.918 675.964 165.46 652.505 153.012C583.396 116.339 508.48 140.696 440.264 103.26C388.063 74.6128 361.655 -0.453776 339.301 8.78183C316.948 18.0174 254.37 4.44862 211.072 22.3505C175.962 36.8667 180.985 66.7649 142.535 76.6251C114.262 83.8756 85.6824 76.6251 65.1554 76.6251Z" fill="#85A68B"/>
</g>
<defs>
<filter id="filter0_f_11_130" x="0.410156" y="0" width="3719.18" height="554" filterUnits="userSpaceOnUse" color-interpolation-filters="sRGB">
<feFlood flood-opacity="0" result="BackgroundImageFix"/>
<feBlend mode="normal" in="SourceGraphic" in2="BackgroundImageFix" result="shape"/>
<feGaussianBlur stdDeviation="4" result="effect1_foregroundBlur_11_130"/>
</filter>
</defs>
</svg>
