<svg width="3732" height="924" viewBox="0 0 3732 924" fill="none" xmlns="http://www.w3.org/2000/svg">
<g filter="url(#filter0_f_11_128)">
<path d="M154.93 236.255C106.502 255.419 16.8204 264.265 16.8204 264.265V908H3715.59V264.265C3715.59 264.265 3512.31 242.019 3377.49 170.231C3292.51 124.984 3254.62 88.9818 3157.11 56.6894C3096.41 36.5855 3059.39 7.84315 2993.34 18.1753C2911.94 30.9094 2928.78 94.5885 2871.08 134.718C2701.24 252.84 2520.57 299.156 2277.14 274.769C2177.77 264.814 2134.52 225.913 2034.88 217.248C1947.91 209.685 1896.35 215.714 1811.32 225.653L1806.21 226.251C1687.8 240.084 1632.84 276.808 1514.89 292.275C1343.73 314.721 1241.81 303.227 1068.11 292.275C960.638 285.499 890.617 297.378 794.913 264.265C735.297 243.639 708.123 186.237 661.331 192.239C614.54 198.241 457.563 140.72 457.563 140.72C397.993 143.465 369.726 192.956 314.926 177.233C294.523 171.38 293.039 166.73 270.399 153.725C247.758 140.72 211.871 213.721 154.93 236.255Z" fill="#DEFDE3"/>
</g>
<defs>
<filter id="filter0_f_11_128" x="0.820435" y="0" width="3730.77" height="924" filterUnits="userSpaceOnUse" color-interpolation-filters="sRGB">
<feFlood flood-opacity="0" result="BackgroundImageFix"/>
<feBlend mode="normal" in="SourceGraphic" in2="BackgroundImageFix" result="shape"/>
<feGaussianBlur stdDeviation="8" result="effect1_foregroundBlur_11_128"/>
</filter>
</defs>
</svg>
